<?xml version="1.0" standalone="no"?>
<!DOCTYPE svg PUBLIC "-//W3C//DTD SVG 20010904//EN"
 "http://www.w3.org/TR/2001/REC-SVG-20010904/DTD/svg10.dtd">
<svg version="1.0" xmlns="http://www.w3.org/2000/svg"
 width="431.000000pt" height="431.000000pt" viewBox="0 0 431.000000 431.000000"
 preserveAspectRatio="xMidYMid meet">
<metadata>
Created by potrace 1.11, written by Peter Selinger 2001-2013
</metadata>
<g transform="translate(0.000000,431.000000) scale(0.100000,-0.100000)"
fill="#000000" stroke="none">
<path d="M1900 3785 c-39 -40 -50 -58 -50 -83 0 -18 -5 -32 -11 -32 -6 0 -69
16 -140 35 -71 19 -134 35 -140 35 -5 0 -32 -22 -59 -50 -41 -40 -50 -56 -50
-84 l0 -34 -49 13 -49 13 -51 -52 c-41 -41 -51 -58 -51 -85 0 -36 -2 -36 -75
-16 -15 4 -34 -8 -73 -46 l-52 -52 2 -400 3 -401 98 -25 97 -25 0 -100 0 -101
168 -44 c92 -25 181 -48 199 -53 l32 -9 3 -101 3 -102 98 -25 97 -25 0 -133
c0 -145 2 -140 -62 -123 l-37 11 -3 101 -3 101 -385 103 c-212 57 -391 104
-398 104 -8 0 -36 -22 -63 -49 l-49 -49 0 -100 0 -99 58 -16 c31 -9 76 -21 99
-27 l43 -11 2 -201 3 -201 195 -51 195 -52 3 -101 3 -101 72 -19 c40 -11 129
-35 200 -54 l127 -33 0 -201 0 -201 43 -11 c23 -6 111 -30 196 -53 l154 -41
30 28 c79 73 76 65 77 211 0 122 1 133 18 128 9 -3 71 -19 137 -36 65 -17 123
-34 128 -37 5 -3 33 19 63 48 44 44 54 59 54 87 0 31 2 34 25 28 14 -3 35 -9
48 -12 18 -4 34 6 75 45 43 42 52 56 52 86 0 19 1 35 3 35 1 0 23 -7 48 -14
l46 -14 52 52 51 52 0 401 0 401 -47 11 c-27 7 -72 18 -100 27 l-53 15 0 99 0
99 -52 15 c-29 8 -74 20 -100 27 l-48 11 0 102 0 101 -153 39 c-261 68 -247
62 -247 103 0 24 4 34 13 31 6 -3 118 -33 248 -67 l236 -63 51 51 c43 42 52
58 52 86 0 19 1 35 3 35 1 0 23 -7 48 -14 l46 -14 52 52 51 52 0 101 0 101
-47 11 c-27 7 -72 19 -100 27 l-53 15 0 99 0 99 -42 11 c-24 7 -69 19 -100 27
l-58 16 0 101 0 101 -153 39 c-83 22 -173 46 -199 54 l-48 14 0 98 0 99 -42
12 c-24 6 -114 31 -200 54 l-157 42 -51 -52z m-75 -845 c19 -7 25 -17 25 -40
0 -33 -6 -35 -62 -19 -35 9 -38 13 -38 46 0 32 2 35 25 29 13 -3 36 -11 50
-16z m603 -1361 c17 -7 22 -16 22 -44 0 -20 -3 -34 -7 -32 -5 3 -27 10 -50 16
-40 11 -43 14 -43 47 0 32 1 34 28 28 15 -4 37 -11 50 -15z"/>
</g>
</svg>
